<svg viewBox="0 0 48 48" xmlns="http://www.w3.org/2000/svg"><path d="M24 0a7.2 7.2 0 0 1 7.2 7.2l.003 19.201A11.982 11.982 0 0 1 36 36c0 6.627-5.373 12-12 12s-12-5.373-12-12c0-3.926 1.885-7.411 4.8-9.6V7.2A7.2 7.2 0 0 1 24 0Zm0 2.4a4.8 4.8 0 0 0-4.787 4.442L19.2 7.2v20.398l-.959.72A9.58 9.58 0 0 0 14.4 36a9.6 9.6 0 1 0 19.2 0 9.575 9.575 0 0 0-3.4-7.33l-.44-.35-.957-.72L28.8 7.2A4.8 4.8 0 0 0 24 2.4Zm0 12a2.4 2.4 0 0 1 2.4 2.4l.002 12.41a7.2 7.2 0 1 1-4.802 0V16.8a2.4 2.4 0 0 1 2.4-2.4Z" fill="#313132" fill-rule="evenodd"/></svg>