<?xml version="1.0" encoding="UTF-8"?>
<svg width="600px" height="600px" viewBox="0 0 600 600" version="1.1" xmlns="http://www.w3.org/2000/svg" xmlns:xlink="http://www.w3.org/1999/xlink">
    <title>assets/icon</title>
    <g id="/assets/icon" stroke="none" stroke-width="1" fill="none" fill-rule="evenodd">
        <path d="M517.437405,374.681481 C515.685496,346.281481 507.276336,316.479012 477.844275,308.765432 L477.844275,308.064198 C507.977099,295.441975 520.941221,270.548148 520.941221,237.239506 C520.941221,194.464198 490.107634,158 441.40458,158 L70,158 L70,441.649383 L354.509924,441.649383 L354.509924,331.204938 L414.074809,331.204938 C444.207634,331.204938 455.069466,344.177778 459.274046,373.980247 C462.427481,396.419753 461.376336,423.767901 468.734351,442 L529,442 C518.138168,425.871605 518.48855,392.562963 517.437405,374.681481 Z M302,391 L120,391 L120,210 L301.648649,210 L301.648649,391 L302,391 Z M420.203947,287 L355,287 L355,208 L420.203947,208 C446.703947,208 461,219.884956 461,247.150442 C461,275.464602 446.703947,287 420.203947,287 L420.203947,287 Z" id="Shape" fill="#000000" fill-rule="nonzero"></path>
    </g>
</svg>