<?xml version="1.0" encoding="UTF-8"?>
<svg width="600px" height="600px" viewBox="0 0 600 600" version="1.1" xmlns="http://www.w3.org/2000/svg" xmlns:xlink="http://www.w3.org/1999/xlink">
    <title>drivers/remeha/assets/icon</title>
    <defs>
        <path d="M64.0539935,0.071769214 L497.701532,20.2401904 C516.336668,21.1068879 531,36.4785452 531,55.1471695 L531,397.775906 C531,413.831226 518.349883,427.031135 502.320088,427.702288 L66.6873095,445.941818 C61.1290864,446.174536 55.5636443,445.708524 50.1213546,444.554699 L29.8792268,440.263146 C12.460295,436.570141 0,421.18243 0,403.364106 L0,40.2285333 C0,23.4677208 11.7145218,8.99058036 28.0971986,5.50521332 L47.1347548,1.45502838 C52.6923138,0.272673781 58.3783578,-0.192197734 64.0539935,0.071769214 Z M209.812926,321.949784 L52.1017422,323.64189 L52.1017422,406.518805 C52.1017422,415.626053 59.1774685,423.079622 68.1274219,423.675393 L273.524071,415.07819 C238.500675,401.579755 212.819322,365.328284 209.812926,321.949784 Z M45.7544271,24.4314074 L32.7076395,27.2072883 C26.5641356,28.514301 22.17119,33.9432286 22.17119,40.2285333 L22.17119,403.364106 C22.17119,410.701063 27.3018997,417.03718 34.474401,418.557829 L44.8542818,420.759147 C42.4145841,416.576642 41.0167015,411.711087 41.0167015,406.518805 L41.0167015,39.7712761 L41.0188781,39.5974893 C41.0892918,33.9755063 42.8265468,28.765226 45.7544271,24.4314074 Z M508.82881,318.739099 L422.202362,319.670602 C420.13646,360.36043 398.099004,395.085159 366.934705,411.166868 L501.393277,405.534598 C505.54915,405.360595 508.82881,401.938396 508.82881,397.775906 L508.82881,318.739099 Z M327.856472,217.161915 C281.962769,217.161915 244.43737,260.095543 244.43737,313.398393 C244.43737,366.701244 281.962769,409.634872 327.856472,409.634872 C373.750175,409.634872 411.275574,366.701244 411.275574,313.398393 C411.275574,260.095543 373.750175,217.161915 327.856472,217.161915 Z M278.87606,221.571713 L278.837091,221.588074 C245.169683,233.850341 220.60334,270.22129 220.60334,313.398393 C220.60334,356.592503 245.189038,392.975094 278.876873,405.223191 C251.542754,386.381959 233.351775,352.246981 233.351775,313.398393 C233.351775,274.549807 251.542754,240.414828 278.87606,221.571713 Z M330.073591,240.458354 C365.7366,240.458354 394.647182,273.859735 394.647182,315.062425 C394.647182,356.265116 365.7366,389.666496 330.073591,389.666496 C294.410582,389.666496 265.5,356.265116 265.5,315.062425 C265.5,273.859735 294.410582,240.458354 330.073591,240.458354 Z M378.250305,342.669417 L282.703367,344.563164 C291.718446,364.876232 309.719538,378.572954 330.073591,378.572954 C351.053958,378.572954 369.534329,364.02034 378.250305,342.669417 Z M330.073591,251.551896 C300.915185,251.551896 276.585595,279.660701 276.585595,315.062425 C276.585595,321.506153 277.391642,327.708264 278.88614,333.543232 L381.751704,331.504465 C382.93118,326.270633 383.561587,320.761013 383.561587,315.062425 C383.561587,279.660701 359.231996,251.551896 330.073591,251.551896 Z M52.1092762,39.461393 L52.1017422,39.8407935 L52.1017422,312.548347 L90.3475992,312.137886 L90.3475992,60.1882937 C90.3475992,57.0945283 92.8734298,54.6096477 95.9451395,54.64144 L96.0991706,54.6454588 L471.900841,68.8205405 C474.878693,68.9328637 477.234864,71.3812728 477.234864,74.3633755 L477.234864,307.984464 L508.82881,307.645556 L508.82881,55.1471695 C508.82881,48.3997953 503.58206,42.832123 496.875886,42.4144287 L496.672226,42.4033517 L92.0367351,23.5847974 C91.92043,23.5906171 91.8031982,23.5928405 91.6851505,23.5913599 L68.9390876,23.3034256 C59.84803,23.1920371 52.3696125,30.4006758 52.1092762,39.461393 Z M101.433194,65.9475061 L101.433194,312.018631 L209.543672,310.857766 C210.72765,252.901897 252.313847,206.068373 303.831648,206.068373 L327.856472,206.068373 C378.795314,206.068373 420.04926,251.674269 422.267308,308.573514 L466.149269,308.103165 L466.149269,79.7046077 L101.433194,65.9475061 Z" id="path-1"></path>
    </defs>
    <g id="/drivers/remeha/assets/icon" stroke="none" stroke-width="1" fill="none" fill-rule="evenodd">
        <g id="etwist" transform="translate(35, 77)">
            <mask id="mask-2" fill="white">
                <use xlink:href="#path-1"></use>
            </mask>
            <g id="Shape"></g>
            <polygon id="Path" fill="#000000" fill-rule="nonzero" mask="url(#mask-2)" points="0 0 531 0 531 446 0 446"></polygon>
        </g>
    </g>
</svg>